<mxfile host="app.diagrams.net" modified="2024-04-13T01:15:40.981Z" agent="Mozilla/5.0 (Windows NT 10.0; Win64; x64) AppleWebKit/537.36 (KHTML, like Gecko) Chrome/123.0.0.0 Safari/537.36" version="24.2.5" etag="M4OfspgF0UQcT60EM6hu" type="device">
  <diagram id="UjIiidSru0Sk_bVTeNwI" name="Página-1">
    <mxGraphModel dx="1434" dy="780" grid="1" gridSize="10" guides="1" tooltips="1" connect="1" arrows="1" fold="1" page="1" pageScale="1" pageWidth="827" pageHeight="1169" math="0" shadow="0">
      <root>
        <mxCell id="0" />
        <mxCell id="1" parent="0" />
        <mxCell id="6tM928g4U8AIfsIZGoSZ-1" value="Criar tarefas" style="strokeWidth=1;shadow=0;dashed=0;align=center;html=1;shape=mxgraph.mockup.containers.window;align=left;verticalAlign=top;spacingLeft=8;strokeColor2=#008cff;strokeColor3=#c4c4c4;fontColor=#666666;mainText=;fontSize=17;labelBackgroundColor=none;whiteSpace=wrap;" vertex="1" parent="1">
          <mxGeometry x="140" y="210" width="550" height="380" as="geometry" />
        </mxCell>
        <mxCell id="6tM928g4U8AIfsIZGoSZ-9" value="" style="strokeWidth=1;shadow=0;dashed=0;align=center;html=1;shape=mxgraph.mockup.forms.rrect;rSize=0;strokeColor=#999999;fillColor=#ffffff;recursiveResize=0;" vertex="1" parent="1">
          <mxGeometry x="510" y="260" width="150" height="120" as="geometry" />
        </mxCell>
        <mxCell id="6tM928g4U8AIfsIZGoSZ-11" value="Baixa" style="shape=ellipse;rSize=0;fillColor=#eeeeee;strokeColor=#999999;gradientColor=#cccccc;html=1;align=left;spacingLeft=4;fontSize=17;fontColor=#666666;labelPosition=right;" vertex="1" parent="6tM928g4U8AIfsIZGoSZ-9">
          <mxGeometry x="8" y="37.5" width="15" height="15" as="geometry" />
        </mxCell>
        <mxCell id="6tM928g4U8AIfsIZGoSZ-12" value="Média" style="shape=ellipse;rSize=0;fillColor=#aaaaaa;strokeColor=#444444;gradientColor=#666666;html=1;align=left;spacingLeft=4;fontSize=17;fontColor=#008cff;labelPosition=right;" vertex="1" parent="6tM928g4U8AIfsIZGoSZ-9">
          <mxGeometry x="8" y="67.5" width="15" height="15" as="geometry" />
        </mxCell>
        <mxCell id="6tM928g4U8AIfsIZGoSZ-13" value="" style="shape=ellipse;fillColor=#444444;strokeColor=none;html=1;" vertex="1" parent="6tM928g4U8AIfsIZGoSZ-12">
          <mxGeometry x="3" y="3" width="9" height="9" as="geometry" />
        </mxCell>
        <mxCell id="6tM928g4U8AIfsIZGoSZ-14" value="Alta" style="shape=ellipse;rSize=0;fillColor=#eeeeee;strokeColor=#999999;gradientColor=#cccccc;html=1;align=left;spacingLeft=4;fontSize=17;fontColor=#666666;labelPosition=right;" vertex="1" parent="6tM928g4U8AIfsIZGoSZ-9">
          <mxGeometry x="8" y="97.5" width="15" height="15" as="geometry" />
        </mxCell>
        <mxCell id="6tM928g4U8AIfsIZGoSZ-15" value="Prioridade" style="strokeWidth=1;shadow=0;dashed=0;align=center;html=1;shape=mxgraph.mockup.text.textBox;fontColor=#666666;align=left;fontSize=17;spacingLeft=4;spacingTop=-3;whiteSpace=wrap;strokeColor=#666666;mainText=" vertex="1" parent="6tM928g4U8AIfsIZGoSZ-9">
          <mxGeometry x="30" width="90" height="22.5" as="geometry" />
        </mxCell>
        <mxCell id="6tM928g4U8AIfsIZGoSZ-16" value="" style="strokeWidth=1;shadow=0;dashed=0;align=center;html=1;shape=mxgraph.mockup.forms.rrect;rSize=0;strokeColor=#999999;fillColor=#ffffff;" vertex="1" parent="1">
          <mxGeometry x="200" y="260" width="260" height="200" as="geometry" />
        </mxCell>
        <mxCell id="6tM928g4U8AIfsIZGoSZ-17" value="Tarefa" style="strokeWidth=1;shadow=0;dashed=0;align=center;html=1;shape=mxgraph.mockup.forms.rrect;rSize=0;strokeColor=#999999;fontColor=#008cff;fontSize=17;fillColor=#ffffff;resizeWidth=1;whiteSpace=wrap;" vertex="1" parent="6tM928g4U8AIfsIZGoSZ-16">
          <mxGeometry width="260" height="30" relative="1" as="geometry">
            <mxPoint y="-1" as="offset" />
          </mxGeometry>
        </mxCell>
        <mxCell id="6tM928g4U8AIfsIZGoSZ-18" value="Tipos de tarefas" style="strokeWidth=1;shadow=0;dashed=0;align=center;html=1;shape=mxgraph.mockup.forms.anchor;fontSize=17;fontColor=#666666;align=left;spacingLeft=5;resizeWidth=1;whiteSpace=wrap;" vertex="1" parent="6tM928g4U8AIfsIZGoSZ-16">
          <mxGeometry width="260" height="20" relative="1" as="geometry">
            <mxPoint y="30" as="offset" />
          </mxGeometry>
        </mxCell>
        <mxCell id="6tM928g4U8AIfsIZGoSZ-19" value="" style="strokeWidth=1;shadow=0;dashed=0;align=center;html=1;shape=mxgraph.mockup.forms.anchor;fontSize=17;fontColor=#666666;align=left;spacingLeft=5;resizeWidth=1;whiteSpace=wrap;" vertex="1" parent="6tM928g4U8AIfsIZGoSZ-16">
          <mxGeometry width="260" height="20" relative="1" as="geometry">
            <mxPoint y="50" as="offset" />
          </mxGeometry>
        </mxCell>
        <mxCell id="6tM928g4U8AIfsIZGoSZ-21" value="" style="strokeWidth=1;shadow=0;dashed=0;align=center;html=1;shape=mxgraph.mockup.forms.anchor;fontSize=17;fontColor=#666666;align=left;spacingLeft=5;resizeWidth=1;whiteSpace=wrap;" vertex="1" parent="6tM928g4U8AIfsIZGoSZ-16">
          <mxGeometry width="260" height="20" relative="1" as="geometry">
            <mxPoint y="90" as="offset" />
          </mxGeometry>
        </mxCell>
        <mxCell id="6tM928g4U8AIfsIZGoSZ-25" value="Data" style="strokeWidth=1;shadow=0;dashed=0;align=center;html=1;shape=mxgraph.mockup.text.textBox;fontColor=#666666;align=left;fontSize=17;spacingLeft=4;spacingTop=-3;whiteSpace=wrap;strokeColor=#666666;mainText=" vertex="1" parent="6tM928g4U8AIfsIZGoSZ-16">
          <mxGeometry x="10" y="70" width="150" height="30" as="geometry" />
        </mxCell>
        <mxCell id="6tM928g4U8AIfsIZGoSZ-26" value="Prazo" style="strokeWidth=1;shadow=0;dashed=0;align=center;html=1;shape=mxgraph.mockup.text.textBox;fontColor=#666666;align=left;fontSize=17;spacingLeft=4;spacingTop=-3;whiteSpace=wrap;strokeColor=#666666;mainText=" vertex="1" parent="6tM928g4U8AIfsIZGoSZ-16">
          <mxGeometry x="10" y="110" width="150" height="30" as="geometry" />
        </mxCell>
        <mxCell id="6tM928g4U8AIfsIZGoSZ-27" value="Livre" style="strokeWidth=1;shadow=0;dashed=0;align=center;html=1;shape=mxgraph.mockup.text.textBox;fontColor=#666666;align=left;fontSize=17;spacingLeft=4;spacingTop=-3;whiteSpace=wrap;strokeColor=#666666;mainText=" vertex="1" parent="6tM928g4U8AIfsIZGoSZ-16">
          <mxGeometry x="10" y="150" width="150" height="30" as="geometry" />
        </mxCell>
        <mxCell id="6tM928g4U8AIfsIZGoSZ-28" value="Descrição" style="strokeWidth=1;shadow=0;dashed=0;align=center;html=1;shape=mxgraph.mockup.text.textBox;fontColor=#666666;align=left;fontSize=17;spacingLeft=4;spacingTop=-3;whiteSpace=wrap;strokeColor=#666666;mainText=" vertex="1" parent="1">
          <mxGeometry x="200" y="480" width="260" height="70" as="geometry" />
        </mxCell>
        <mxCell id="6tM928g4U8AIfsIZGoSZ-29" value="Status" style="strokeWidth=1;shadow=0;dashed=0;align=center;html=1;shape=mxgraph.mockup.text.textBox;fontColor=#666666;align=left;fontSize=17;spacingLeft=4;spacingTop=-3;whiteSpace=wrap;strokeColor=#666666;mainText=" vertex="1" parent="1">
          <mxGeometry x="510" y="480" width="150" height="30" as="geometry" />
        </mxCell>
        <mxCell id="6tM928g4U8AIfsIZGoSZ-30" value="Equipe" style="strokeWidth=1;shadow=0;dashed=0;align=center;html=1;shape=mxgraph.mockup.forms.rrect;rSize=0;fillColor=#eeeeee;strokeColor=#999999;gradientColor=#cccccc;align=left;spacingLeft=4;fontSize=17;fontColor=#666666;labelPosition=right;" vertex="1" parent="1">
          <mxGeometry x="515" y="395" width="15" height="15" as="geometry" />
        </mxCell>
        <mxCell id="6tM928g4U8AIfsIZGoSZ-31" value="Individual" style="strokeWidth=1;shadow=0;dashed=0;align=center;html=1;shape=mxgraph.mockup.forms.rrect;rSize=0;fillColor=#eeeeee;strokeColor=#999999;gradientColor=#cccccc;align=left;spacingLeft=4;fontSize=17;fontColor=#666666;labelPosition=right;" vertex="1" parent="1">
          <mxGeometry x="515" y="430" width="15" height="15" as="geometry" />
        </mxCell>
        <mxCell id="6tM928g4U8AIfsIZGoSZ-35" value="Criar" style="shape=ellipse;fillColor=#eeeeee;strokeColor=#999999;gradientColor=#cccccc;html=1;align=left;spacingLeft=4;fontSize=17;fontColor=#666666;labelPosition=right;shadow=0;" vertex="1" parent="1">
          <mxGeometry x="510" y="530" width="15" height="15" as="geometry" />
        </mxCell>
      </root>
    </mxGraphModel>
  </diagram>
</mxfile>
